<svg width="160" height="122" viewBox="0 0 160 122" fill="none" xmlns="http://www.w3.org/2000/svg">
<path fill-rule="evenodd" clip-rule="evenodd" d="M78.8648 121.234C68.7167 114.681 57.6886 111.573 46.5101 108.419L45.3795 108.102C35.3453 105.269 23.9936 102.061 15.7602 94.3072C9.85183 88.7424 6.37793 81.5598 4.46319 73.6838C2.553 65.8441 2.18372 57.3201 2.4755 49.0272C2.53932 47.1874 2.58491 43.3355 2.28858 40.0455C2.10622 37.9972 1.79166 36.1846 1.27194 35.2646L0 32.9943L1.93298 31.4671C5.53909 28.6122 9.2455 25.9748 13.0522 23.5594C16.8635 21.135 20.7705 18.9326 24.7732 16.9478C33.499 12.6156 42.5758 9.34825 51.7939 6.68819C60.9938 4.03718 70.3442 1.98889 79.6307 0.108262L80.1276 0.00856608L80.62 0.144515C85.5528 1.52213 90.5676 2.61425 95.5642 3.70637L98.3998 4.32721C101.71 5.0568 105.006 5.80452 108.265 6.61115C111.557 7.42684 114.83 8.30598 118.072 9.29841C125.425 11.5461 132.478 14.333 139.198 17.9538C145.922 21.5746 152.305 26.0246 158.309 31.5986L160 33.1665L158.819 35.2646C158.304 36.1846 157.99 38.0017 157.803 40.0455C157.506 43.3355 157.552 47.1874 157.616 49.0272C157.903 57.3201 157.534 65.8441 155.628 73.6838C153.709 81.5598 150.239 88.7424 144.331 94.3072C136.098 102.061 124.741 105.269 114.707 108.102L113.581 108.419C102.403 111.573 91.3745 114.686 81.2264 121.234L80.0456 122L78.8648 121.234Z" fill="#04482C"/>
<path fill-rule="evenodd" clip-rule="evenodd" d="M78.8648 121.234C68.7167 114.681 57.6886 111.573 46.5101 108.419L45.3795 108.102C35.3453 105.269 23.9936 102.061 15.7602 94.3072C9.85183 88.7424 6.37793 81.5598 4.46319 73.6838C2.553 65.8441 2.18372 57.3201 2.4755 49.0272C2.53932 47.1874 2.58491 43.3355 2.28858 40.0455C2.10622 37.9972 1.79166 36.1846 1.27194 35.2646L0 32.9943L1.93298 31.4671C5.53909 28.6122 9.2455 25.9748 13.0522 23.5594C16.8635 21.135 20.7705 18.9326 24.7732 16.9478C33.499 12.6156 42.5758 9.34825 51.7939 6.68819C60.9938 4.03718 70.3442 1.98889 79.6307 0.108262L80.1276 0.00856608L80.62 0.144515C85.5528 1.52213 90.5676 2.61425 95.5642 3.70637L98.3998 4.32721C101.71 5.0568 105.006 5.80452 108.265 6.61115C111.557 7.42684 114.83 8.30598 118.072 9.29841C125.425 11.5461 132.478 14.333 139.198 17.9538C145.922 21.5746 152.305 26.0246 158.309 31.5986L160 33.1665L158.819 35.2646C158.304 36.1846 157.99 38.0017 157.803 40.0455C157.506 43.3355 157.552 47.1874 157.616 49.0272C157.903 57.3201 157.534 65.8441 155.628 73.6838C153.709 81.5598 150.239 88.7424 144.331 94.3072C136.098 102.061 124.741 105.269 114.707 108.102L113.581 108.419C102.403 111.573 91.3745 114.686 81.2264 121.234L80.0456 122L78.8648 121.234Z" fill="#044B2C"/>
<path fill-rule="evenodd" clip-rule="evenodd" d="M80.0776 0.00453163V121.964L80.0457 121.987L78.865 121.221C68.7168 114.673 57.6979 111.56 46.5148 108.41L45.3888 108.093C35.3546 105.252 23.9983 102.052 15.7649 94.2987C9.85197 88.7338 6.38719 81.5467 4.46788 73.6707C2.56225 65.8264 2.18842 57.307 2.48019 49.0096C2.53946 47.1697 2.59416 43.3224 2.28871 40.0279C2.10636 37.9841 1.79179 36.1669 1.27663 35.2515L0.00469381 32.9857L1.93768 31.454C5.53923 28.5991 9.25019 25.9662 13.0523 23.5418C16.8682 21.1174 20.7752 18.915 24.7779 16.9302C33.4991 12.5979 42.5805 9.32609 51.7986 6.67056C60.9985 4.01955 70.3489 1.97579 79.6354 0.0906326L80.0868 0L80.0776 0.00453163Z" fill="#025F3A"/>
<path d="M15.9513 70.4304V66.5559H13.5122V65.5317H19.6531V66.5559H17.2004V70.4304H15.9513Z" fill="white"/>
<path d="M21.8513 70.4301V65.5269H26.3144C27.1761 65.5269 27.7687 65.903 28.0787 66.4423C28.2565 66.7504 28.3158 67.0903 28.3158 67.4075C28.3158 67.8516 28.1973 68.341 27.787 68.7307C27.6411 68.8712 27.4633 68.9936 27.2536 69.0842L28.5711 70.4301H27.0028L25.8631 69.2609H23.0548V70.4301H21.8513ZM23.0502 68.2323H26.3099C26.5515 68.2323 26.7293 68.1688 26.8797 68.0238C27.053 67.8607 27.1168 67.6386 27.1168 67.3939C27.1168 67.1492 27.0484 66.9272 26.8797 66.764C26.7339 66.6235 26.5515 66.5556 26.3099 66.5556H23.0502V68.2368V68.2323Z" fill="white"/>
<path d="M30.5945 70.4303L33.7401 65.527H35.2127L38.3583 70.4303H36.9952L36.4071 69.5194H32.5411L31.953 70.4303H30.5899H30.5945ZM33.2022 68.4907H35.7506L34.5151 66.5512H34.4467L33.2022 68.4907Z" fill="white"/>
<path d="M40.5603 70.4304V65.5272H41.7593V67.4667H43.0632L45.3335 65.5272H47.0158L44.171 67.9788L47.0158 70.4304H45.3335L43.0632 68.4954H41.7593V70.4304H40.5603Z" fill="white"/>
<path d="M49.2086 70.4303V65.527H55.3494V66.5512H50.4076V67.4621H54.1778V68.4907H50.4076V69.4016H55.3494V70.4303H49.2086Z" fill="white"/>
<path d="M57.7244 70.4301V65.5269H58.9234V67.5208H62.9945V65.5269H64.1935V70.4301H62.9945V68.5449H58.9234V70.4301H57.7244Z" fill="white"/>
<path d="M66.7425 70.4303V65.527H67.7911L72.0081 68.9303V65.527H73.2071V70.4303H72.1631L67.9415 67.0723V70.4303H66.7425Z" fill="white"/>
<path d="M75.5776 70.4301V65.5269H81.7185V66.551H76.7766V67.4619H80.5468V68.4906H76.7766V69.4014H81.7185V70.4301H75.5776Z" fill="white"/>
<path d="M84.0942 70.4303V65.527H88.5574C89.419 65.527 90.0117 65.9032 90.3217 66.4424C90.4949 66.7506 90.5588 67.0905 90.5588 67.4077C90.5588 67.8518 90.4402 68.3412 90.0299 68.7309C89.884 68.8714 89.7062 68.9937 89.4965 69.0844L90.814 70.4303H89.2458L88.106 69.2611H85.2932V70.4303H84.0942ZM85.2886 68.2324H88.5483C88.7899 68.2324 88.9677 68.169 89.1181 68.024C89.2914 67.8608 89.3552 67.6388 89.3552 67.3941C89.3552 67.1494 89.2868 66.9273 89.1181 66.7642C88.9722 66.6237 88.7899 66.5557 88.5483 66.5557H85.2886V68.237V68.2324Z" fill="white"/>
<path d="M99.6769 68.5094V67.4807H103.962V70.4263H100.083C98.9794 70.4263 98.2089 69.9324 97.8077 69.239C97.5798 68.8402 97.4977 68.4052 97.4977 67.9883C97.4977 67.5714 97.5798 67.1273 97.8123 66.7194C98.2135 66.0306 98.9748 65.5231 100.087 65.5231H103.908V66.5472H100.096C99.6769 66.5472 99.3532 66.665 99.0934 66.9098C98.797 67.1952 98.6922 67.5759 98.6922 67.9656C98.6922 68.3553 98.797 68.7405 99.0979 69.026C99.3532 69.2753 99.6769 69.3976 100.096 69.3976H102.782V68.5049H99.686L99.6769 68.5094Z" fill="white"/>
<path d="M106.336 70.4303V65.527H112.477V66.5512H107.535V67.4621H111.305V68.4907H107.535V69.4016H112.477V70.4303H106.336Z" fill="white"/>
<path d="M114.875 70.4304V69.4017H119.535C119.781 69.4017 119.945 69.2386 119.945 68.9486C119.945 68.6585 119.785 68.4909 119.535 68.4909H116.275C115.792 68.4909 115.395 68.3413 115.103 68.0649C114.775 67.7522 114.679 67.3625 114.679 67.0181C114.679 66.6737 114.775 66.2704 115.103 65.9622C115.4 65.6813 115.792 65.5272 116.275 65.5272H120.948V66.5513H116.284C116.042 66.5513 115.874 66.719 115.874 67C115.874 67.2809 116.038 67.4622 116.284 67.4622H119.544C120.027 67.4622 120.428 67.6072 120.72 67.8882C121.048 68.2008 121.139 68.5906 121.139 68.935C121.139 69.2794 121.044 69.6781 120.72 69.9908C120.428 70.2718 120.022 70.4259 119.539 70.4259H114.871L114.875 70.4304Z" fill="white"/>
<path d="M125.603 70.4303V66.5557H123.163V65.5316H129.304V66.5557H126.852V70.4303H125.603Z" fill="white"/>
<path d="M131.501 65.5272H132.7V67.4259C132.7 68.1011 132.965 68.7945 133.671 69.1661C133.986 69.3292 134.323 69.4017 134.72 69.4017C135.117 69.4017 135.472 69.3337 135.791 69.1661C136.507 68.7945 136.771 68.1057 136.771 67.4259V65.5272H137.97V67.4441C137.97 67.9561 137.87 68.4954 137.583 68.9848C137.072 69.8503 136.12 70.4304 134.756 70.4304C133.393 70.4304 132.409 69.8594 131.893 68.9893C131.602 68.4954 131.501 67.9607 131.501 67.4441V65.5272ZM133.421 65.1103V64.0816H134.62V65.1103H133.421ZM134.848 65.1103V64.0816H136.047V65.1103H134.848Z" fill="white"/>
<path d="M142.603 70.4303V66.5557H140.164V65.5316H146.305V66.5557H143.852V70.4303H142.603Z" fill="white"/>
<path d="M34.6482 42.3024V39.3614H34.0874V38.5094H34.5433C34.5753 38.5094 34.6482 38.4913 34.6482 38.3554V38.1469H35.6466V42.3024H34.6482Z" fill="white"/>
<path d="M38.1489 42.3024V41.4369H41.9875C42.2154 41.4369 42.3704 41.2964 42.3704 41.0517V40.7073H39.1838C38.5957 40.7073 38.1808 40.4626 37.962 40.0955C37.8298 39.878 37.7933 39.6469 37.7933 39.4294C37.7933 39.1257 37.8754 38.7859 38.1626 38.514C38.4224 38.2693 38.7689 38.1469 39.1838 38.1469H41.9921C42.5756 38.1469 42.9905 38.3962 43.2138 38.7587C43.3415 38.9671 43.3825 39.1937 43.3825 39.4022V41.0472C43.3825 41.4278 43.2412 41.8764 42.726 42.1347C42.5027 42.248 42.2565 42.2979 41.9921 42.2979H38.1489V42.3024ZM42.3704 39.8417V39.4067C42.3704 39.162 42.22 39.017 41.9875 39.017H39.1838C39.0789 39.017 38.9968 39.0487 38.9239 39.1122C38.8418 39.1847 38.8054 39.2979 38.8054 39.4294C38.8054 39.6877 38.9558 39.8417 39.1883 39.8417H42.3704Z" fill="white"/>
<path d="M117.102 42.3024V41.4369H120.94C121.168 41.4369 121.323 41.2964 121.323 41.0517V40.7073H118.136C117.548 40.7073 117.133 40.4626 116.915 40.0955C116.782 39.878 116.746 39.6469 116.746 39.4294C116.746 39.1257 116.828 38.7859 117.115 38.514C117.375 38.2693 117.722 38.1469 118.136 38.1469H120.945C121.528 38.1469 121.943 38.3962 122.167 38.7587C122.294 38.9671 122.335 39.1937 122.335 39.4022V41.0472C122.335 41.4278 122.194 41.8764 121.679 42.1347C121.455 42.248 121.209 42.2979 120.945 42.2979H117.102V42.3024ZM121.323 39.8417V39.4067C121.323 39.162 121.173 39.017 120.94 39.017H118.141C118.032 39.017 117.954 39.0487 117.877 39.1122C117.795 39.1847 117.758 39.2979 117.758 39.4294C117.758 39.6877 117.908 39.8417 118.141 39.8417H121.323Z" fill="white"/>
<path d="M124.245 41.6816V40.9203L127.983 38.1469H129.155V40.8387H129.706V41.6771H129.155V42.2979H128.156V41.6771H124.24L124.245 41.6816ZM125.831 40.8432H128.156V39.162L125.831 40.8432Z" fill="white"/>
<path d="M56.96 85.8741H49.4971V88.4526H48.1066V78.5419H56.96C57.6895 78.5419 58.3277 78.6915 58.8702 78.9951C59.4128 79.2987 59.8413 79.7247 60.1559 80.2821C60.4613 80.8395 60.6117 81.492 60.6117 82.2352C60.6117 83.3273 60.2789 84.2019 59.6088 84.8681C58.9386 85.5388 58.0542 85.8741 56.96 85.8741ZM56.9464 79.9241H49.4971V84.4965H56.9464C57.6302 84.4965 58.1818 84.288 58.5967 83.8666C59.0161 83.4497 59.2213 82.8968 59.2213 82.2035C59.2213 81.5101 59.0116 80.9618 58.5967 80.5449C58.1773 80.128 57.6302 79.9195 56.9464 79.9195V79.9241Z" fill="#FFC35B"/>
<path d="M63.2144 88.4526V78.5419H64.6049V88.4526H63.2144Z" fill="#FFC35B"/>
<path d="M72.5096 87.0704H80.0729V88.4526H72.5096C71.5158 88.4526 70.6541 88.2532 69.9156 87.8499C69.1816 87.4511 68.598 86.871 68.1786 86.1233C67.7638 85.3847 67.5586 84.5146 67.5586 83.5176C67.5586 82.5207 67.7638 81.6461 68.1786 80.9074C68.5935 80.1597 69.1679 79.5797 69.911 79.1673C70.6541 78.7504 71.5249 78.5419 72.5096 78.5419H80.0729V79.9241H72.5096C71.803 79.9241 71.183 80.0736 70.6496 80.3682C70.1162 80.6673 69.7013 81.0887 69.3959 81.637C69.095 82.1718 68.9491 82.7971 68.9491 83.5131C68.9491 84.2291 69.095 84.8635 69.3867 85.3937C69.6785 85.9239 70.0979 86.3363 70.645 86.6354C71.1875 86.93 71.8075 87.075 72.5096 87.075V87.0704Z" fill="#FFC35B"/>
<path d="M84.4236 84.3062V88.4526H83.0331V78.5419H84.4236V82.924H94.1569V78.5419H95.5473V88.4526H94.1569V84.3062H84.4236Z" fill="#FFC35B"/>
<path d="M98.5063 78.5419H99.9104V87.0704H109.63V88.4526H98.5063V78.5419Z" fill="#FFC35B"/>
<path fill-rule="evenodd" clip-rule="evenodd" d="M80.0766 94.2986L79.3426 96.5508H76.9583L78.8913 97.933L78.1482 100.185L80.072 98.7895L81.9959 100.185L81.2574 97.933L83.1858 96.5418H80.8015L80.0675 94.2941L80.0766 94.2986ZM64.0155 95.6989L63.6326 96.8862H62.3788L63.3955 97.6158L63.008 98.7985L64.0201 98.0644L65.0321 98.7985L64.6446 97.6158L65.6613 96.8862H64.4076L64.0246 95.7034L64.0155 95.6989ZM69.0987 96.7366L70.5074 97.7517L69.9649 99.3967L71.369 98.3771L72.7732 99.3967L72.2307 97.7517L73.6394 96.7366H71.8979L71.3645 95.0917L70.8311 96.7366H69.0896H69.0987ZM94.3779 96.8726L95.3855 97.5976L94.9979 98.7713L96.0009 98.0417L97.0039 98.7713L96.6164 97.5976L97.6239 96.8726H96.3839L96.0009 95.6989L95.618 96.8726H94.3779ZM86.3679 96.7321L87.7766 97.7472L87.2341 99.3922L88.6382 98.3726L90.0424 99.3922L89.4999 97.7472L90.9086 96.7321H89.1671L88.6337 95.0871L88.1003 96.7321H86.3588H86.3679Z" fill="#FFC35B"/>
<path d="M102.731 43.6801C102.882 44.1741 103.215 44.6001 103.611 44.9354C104.104 45.3523 104.696 45.7012 105.257 46.0094C105.996 46.4172 106.748 46.7979 107.4 47.3417C107.856 47.7223 108.198 48.1755 108.225 48.8009C108.234 49.0728 108.161 49.1906 107.888 49.1679C107.432 49.1317 106.971 49.1 106.538 48.9731C105.526 48.6785 104.523 48.3296 103.52 47.9988C102.403 47.6317 101.277 47.31 100.083 47.3462C99.7773 47.3553 99.4673 47.4051 99.1755 47.4867C98.3002 47.7405 97.8397 48.3749 97.6665 49.2314C97.5935 49.5984 97.6938 49.97 97.8808 50.2782C98.3093 50.9897 98.7606 51.6875 99.2256 52.3809C99.7453 53.1648 100.297 53.9261 100.812 54.7101C101.036 55.05 101.195 55.4261 101.222 55.843C101.254 56.3143 100.867 56.9533 100.434 57.1481C100.219 57.2433 100.028 57.1753 99.8365 57.0802C99.2621 56.7901 98.7561 56.4049 98.3594 55.8974C97.8352 55.2222 97.2835 54.5606 96.8322 53.84C95.5785 51.8371 93.6045 50.6996 91.3843 50.0108C90.2628 49.6619 89.1185 49.4081 87.9879 49.0909C87.4135 48.9323 86.8573 48.7238 86.2874 48.5471C85.8361 48.4066 85.3893 48.2752 85.134 47.8311C84.9471 47.5094 84.938 47.1151 84.9972 46.748C85.1887 45.5154 86.0139 44.5865 86.7479 43.6303C87.5229 42.6197 88.0335 41.4324 88.5304 40.2724C89.5288 37.9386 90.2901 35.5277 90.7506 33.0263C90.9922 31.7166 91.088 30.4025 90.8646 29.0792C90.6321 27.7061 89.9573 26.6412 88.7173 25.9569C88.38 25.7711 88.0426 25.5808 87.7189 25.3724C87.2174 25.0461 86.9439 24.5929 86.9895 23.9721C87.0168 23.6141 87.1536 23.3105 87.4682 23.1383C87.8694 22.9253 88.2888 22.744 88.7082 22.5627C89.1686 22.3633 89.6473 22.2093 90.0896 21.9872C91.1153 21.4616 91.4436 20.7727 91.2658 19.6353C91.1016 18.5613 90.7278 17.5462 90.4087 16.513C90.2719 16.0734 90.1397 15.6293 90.044 15.1762C89.8935 14.4693 89.9938 14.1838 90.6959 13.6581C90.7232 13.64 90.746 13.6128 90.7734 13.5946H91.0332C91.5666 13.9164 92.0089 14.3424 92.3189 14.8816C92.597 15.362 92.8796 15.8469 93.0848 16.3544C93.4859 17.3332 93.8279 18.3393 94.2063 19.3272C94.4023 19.8302 94.6029 20.3332 94.8445 20.8181C95.1955 21.5159 95.8383 21.6609 96.4766 21.2123C96.6954 21.0582 96.9188 20.8815 97.0829 20.6731C97.5981 20.0205 98.095 19.3498 98.5828 18.6746C99.0752 17.9903 99.5402 17.2834 100.183 16.7305C100.42 16.5266 100.703 16.3408 100.999 16.2366C101.583 16.0327 102.102 16.5266 101.966 17.1203C101.911 17.3468 101.847 17.578 101.742 17.7864C101.305 18.6746 100.876 19.5628 100.393 20.4283C99.873 21.3619 99.7499 22.3044 100.137 23.315C100.347 23.8678 100.543 24.4252 100.917 24.8965C101.145 25.1775 101.355 25.25 101.692 25.1186C101.911 25.0325 102.121 24.9192 102.307 24.7787C102.886 24.3573 103.347 23.818 103.734 23.2289C103.958 22.889 105.157 20.6866 105.686 21.2304C105.79 21.3347 105.818 21.4887 105.836 21.6383C106.037 23.1654 105.973 25.0642 104.933 26.3013C104.596 26.7046 104.25 27.1034 103.889 27.4932C102.827 28.6306 101.751 29.7544 100.844 31.0233C100.27 31.8254 99.7454 32.6547 99.4445 33.6018C99.2895 34.0957 99.2074 34.6033 99.3122 35.1154C99.4764 35.9084 99.9733 36.4522 100.648 36.86C101.815 37.567 103.096 37.5262 104.163 36.6924C104.792 36.2029 105.389 35.6682 105.964 35.1108C106.588 34.5081 107.158 33.842 107.888 33.3526C108.157 33.1713 108.462 33.0353 108.767 32.9356C109.055 32.8405 109.287 32.99 109.401 33.2664C109.442 33.3707 109.474 33.4794 109.506 33.5882V34.3133C109 36.425 107.573 37.9023 106.014 39.2754C105.367 39.8464 104.66 40.3494 104.022 40.9294C103.274 41.6137 102.412 42.588 102.736 43.6756L102.731 43.6801Z" fill="#FFC35B"/>
<path d="M57.2738 43.6801C57.1233 44.1741 56.7905 44.6001 56.3939 44.9354C55.9015 45.3523 55.3089 45.7012 54.7481 46.0094C54.0096 46.4172 53.2574 46.7979 52.6054 47.3417C52.1495 47.7223 51.8076 48.1755 51.7803 48.8009C51.7711 49.0728 51.8441 49.1906 52.1176 49.1679C52.5735 49.1317 53.034 49.1 53.4671 48.9731C54.4791 48.6785 55.4821 48.3296 56.4851 47.9988C57.602 47.6317 58.7281 47.31 59.9225 47.3462C60.2279 47.3553 60.5379 47.4051 60.8297 47.4867C61.705 47.7405 62.1655 48.3749 62.3387 49.2314C62.4117 49.5984 62.3114 49.97 62.1245 50.2782C61.6959 50.9897 61.2446 51.6875 60.7796 52.3809C60.2599 53.1648 59.7082 53.9261 59.1931 54.7101C58.9697 55.05 58.8101 55.4261 58.7828 55.843C58.7509 56.3143 59.1384 56.9533 59.5715 57.1481C59.7857 57.2433 59.9772 57.1753 60.1687 57.0802C60.7431 56.7901 61.2491 56.4049 61.6458 55.8974C62.17 55.2222 62.7217 54.5606 63.173 53.84C64.4267 51.8371 66.4007 50.6996 68.6209 50.0108C69.7424 49.6619 70.8867 49.4081 72.0173 49.0909C72.5918 48.9323 73.1479 48.7238 73.7178 48.5471C74.1691 48.4066 74.6159 48.2752 74.8712 47.8311C75.0581 47.5094 75.0672 47.1151 75.008 46.748C74.8165 45.5154 73.9913 44.5865 73.2574 43.6303C72.4823 42.6197 71.9717 41.4324 71.4748 40.2724C70.4764 37.9386 69.7151 35.5277 69.2546 33.0263C69.013 31.7166 68.9173 30.4025 69.1406 29.0792C69.3731 27.7061 70.0479 26.6412 71.2879 25.9569C71.6253 25.7711 71.9626 25.5808 72.2863 25.3724C72.7878 25.0461 73.0613 24.5929 73.0157 23.9721C72.9884 23.6141 72.8516 23.3105 72.537 23.1383C72.1359 22.9253 71.7164 22.744 71.297 22.5627C70.8366 22.3633 70.3579 22.2093 69.9157 21.9872C68.8899 21.4616 68.5617 20.7727 68.7395 19.6353C68.9036 18.5613 69.2774 17.5462 69.5965 16.513C69.7333 16.0734 69.8655 15.6293 69.9613 15.1762C70.1117 14.4693 70.0114 14.1838 69.3093 13.6581C69.282 13.64 69.2592 13.6128 69.2318 13.5946H68.972C68.4386 13.9164 67.9964 14.3424 67.6863 14.8816C67.4083 15.362 67.1256 15.8469 66.9204 16.3544C66.5193 17.3332 66.1773 18.3393 65.799 19.3272C65.6029 19.8302 65.4023 20.3332 65.1607 20.8181C64.8097 21.5159 64.1669 21.6609 63.5286 21.2123C63.3098 21.0582 63.0864 20.8815 62.9223 20.6731C62.4071 20.0205 61.9102 19.3498 61.4224 18.6746C60.93 17.9903 60.465 17.2834 59.8222 16.7305C59.5851 16.5266 59.3025 16.3408 59.0061 16.2366C58.4226 16.0327 57.9029 16.5266 58.0397 17.1203C58.0944 17.3468 58.1582 17.578 58.263 17.7864C58.7007 18.6746 59.1292 19.5628 59.6125 20.4283C60.1322 21.3619 60.2553 22.3044 59.8678 23.315C59.6581 23.8678 59.462 24.4252 59.0882 24.8965C58.8603 25.1775 58.6506 25.25 58.3132 25.1186C58.0944 25.0325 57.8847 24.9192 57.6977 24.7787C57.1188 24.3573 56.6583 23.818 56.2708 23.2289C56.0474 22.889 54.8484 20.6866 54.3196 21.2304C54.2147 21.3347 54.1874 21.4887 54.1691 21.6383C53.9685 23.1654 54.0324 25.0642 55.0718 26.3013C55.4092 26.7046 55.7556 27.1034 56.1158 27.4932C57.178 28.6306 58.2539 29.7544 59.1612 31.0233C59.7356 31.8254 60.2599 32.6547 60.5607 33.6018C60.7157 34.0957 60.7978 34.6033 60.693 35.1154C60.5288 35.9084 60.0319 36.4522 59.3572 36.86C58.1901 37.567 56.909 37.5262 55.8423 36.6924C55.2131 36.2029 54.6159 35.6682 54.0415 35.1108C53.4169 34.5081 52.847 33.842 52.1176 33.3526C51.8486 33.1713 51.5432 33.0353 51.2377 32.9356C50.9505 32.8405 50.718 32.99 50.6041 33.2664C50.563 33.3707 50.5311 33.4794 50.4992 33.5882V34.3133C51.0052 36.425 52.4322 37.9023 53.9913 39.2754C54.6387 39.8464 55.3453 40.3494 55.9836 40.9294C56.7313 41.6137 57.5929 42.588 57.2692 43.6756L57.2738 43.6801Z" fill="#FFC35B"/>
<path d="M77.9755 46.8069C77.9937 46.0184 78.208 45.2571 78.7459 44.6091C79.4206 43.7934 80.3233 43.7572 81.0573 44.523C82.466 46.0048 82.2061 47.7948 81.1576 49.0456C80.4783 49.8567 79.5437 49.8658 78.8189 49.0863C78.2353 48.4565 77.9846 47.6906 77.9755 46.8069Z" fill="#FFC35B"/>
</svg>
